<svg width="680" height="233" viewBox="0 0 680 233" fill="none" xmlns="http://www.w3.org/2000/svg">
<g clip-path="url(#clip0_135_93)">
<path opacity="0.45" d="M112.207 0L74.7853 66.5108H0L37.3926 0H112.207Z" fill="black"/>
<path opacity="0.6" d="M74.7853 66.5108H149.599L112.207 0H37.3926L74.7853 66.5108Z" fill="black"/>
<path opacity="0.8" d="M37.3926 132.993L74.7853 66.5108L37.3926 0L0 66.5108L37.3926 132.993Z" fill="black"/>
<path opacity="0.45" d="M37.7648 232.773L75.1861 166.263H150L112.579 232.773H37.7648Z" fill="black"/>
<path opacity="0.6" d="M75.1861 166.263H0.372208L37.7648 232.773H112.579L75.1861 166.263Z" fill="black"/>
<path opacity="0.8" d="M112.579 99.7805L75.1861 166.263L112.579 232.773L150 166.263L112.579 99.7805Z" fill="black"/>
</g>
<path d="M202.058 88.88C202.058 81.7973 204.874 76.2933 210.506 72.368C216.138 68.4427 223.434 66.48 232.394 66.48C241.951 66.48 250.698 67.4613 258.634 69.424L257.994 94H252.234L245.834 75.568C242.25 74.8853 238.623 74.544 234.954 74.544C229.066 74.544 224.415 75.696 221.002 78C217.674 80.304 216.01 83.504 216.01 87.6C216.01 91.0987 217.503 94.0427 220.49 96.432C223.562 98.736 228.853 101.467 236.362 104.624C240.373 106.245 243.658 107.781 246.218 109.232C248.863 110.597 251.679 112.432 254.666 114.736C257.653 117.04 259.871 119.813 261.322 123.056C262.858 126.299 263.626 129.925 263.626 133.936C263.626 142.469 260.469 149.04 254.154 153.648C248.266 157.915 240.885 160.005 232.01 159.92C229.621 159.92 225.653 159.707 220.106 159.28C214.645 158.853 208.714 157.701 202.314 155.824V130.608H208.202L214.73 149.808C218.314 150.917 222.495 151.472 227.274 151.472C233.93 151.472 239.306 150.32 243.402 148.016C247.498 145.627 249.546 141.915 249.546 136.88C249.546 133.04 247.711 129.712 244.042 126.896C240.373 124.08 234.997 121.136 227.914 118.064C218.186 113.883 211.445 109.829 207.69 105.904C203.935 101.979 202.058 96.304 202.058 88.88ZM307.641 92.08C317.028 92.08 324.793 95.28 330.937 101.68C337.081 107.995 340.153 116.059 340.153 125.872C340.153 135.771 337.081 143.92 330.937 150.32C324.793 156.72 317.028 159.92 307.641 159.92C298.254 159.92 290.446 156.72 284.217 150.32C278.073 143.92 275.001 135.771 275.001 125.872C275.001 116.059 278.073 107.995 284.217 101.68C290.446 95.28 298.254 92.08 307.641 92.08ZM307.641 99.12C302.35 99.12 298.254 101.552 295.353 106.416C292.537 111.28 291.129 117.765 291.129 125.872C291.129 133.979 292.537 140.507 295.353 145.456C298.254 150.405 302.35 152.88 307.641 152.88C312.932 152.88 316.985 150.405 319.801 145.456C322.702 140.421 324.153 133.893 324.153 125.872C324.153 117.765 322.702 111.28 319.801 106.416C316.985 101.552 312.932 99.12 307.641 99.12ZM347.563 158V152.496L358.443 149.936V65.968H347.563V60.464L368.043 55.6H373.803V149.936L384.683 152.496V158H347.563ZM420.271 74.544C420.271 77.1893 419.332 79.4507 417.455 81.328C415.663 83.12 413.444 84.016 410.799 84.016C408.154 84.016 405.892 83.12 404.015 81.328C402.223 79.4507 401.327 77.1893 401.327 74.544C401.327 71.8987 402.223 69.68 404.015 67.888C405.892 66.0107 408.154 65.072 410.799 65.072C413.444 65.072 415.663 65.968 417.455 67.76C419.332 69.552 420.271 71.8133 420.271 74.544ZM391.983 158V152.496L402.863 149.936V104.368H391.983V98.864L412.463 94H418.095V149.936L428.975 152.496V158H391.983ZM437.129 128.304C437.129 116.784 440.67 107.867 447.753 101.552C454.836 95.2373 463.412 92.08 473.481 92.08C477.065 92.08 480.18 92.464 482.825 93.232V65.968H471.945V60.464L492.425 55.6H498.185V149.68H508.169V153.904L506.121 155.568C505.268 156.251 503.646 157.147 501.257 158.256C498.953 159.365 496.692 159.92 494.473 159.92C493.534 159.92 492.596 159.792 491.657 159.536C490.804 159.365 490.036 159.109 489.353 158.768C488.67 158.427 488.03 158.043 487.433 157.616C486.836 157.104 486.324 156.635 485.897 156.208C485.556 155.781 485.172 155.312 484.745 154.8C484.404 154.288 484.148 153.861 483.977 153.52C483.806 153.179 483.593 152.795 483.337 152.368L483.081 151.856C477.961 157.232 471.646 159.92 464.137 159.92C456.713 159.92 450.356 157.232 445.065 151.856C439.774 146.395 437.129 138.544 437.129 128.304ZM452.873 127.792C452.873 135.131 454.494 140.72 457.737 144.56C461.065 148.4 464.99 150.32 469.513 150.32C474.292 150.32 478.729 148.741 482.825 145.584V100.4C480.18 99.5467 477.449 99.12 474.633 99.12C468.148 99.12 462.9 101.552 458.889 106.416C454.878 111.28 452.873 118.405 452.873 127.792ZM543.521 74.544C543.521 77.1893 542.582 79.4507 540.705 81.328C538.913 83.12 536.694 84.016 534.049 84.016C531.404 84.016 529.142 83.12 527.265 81.328C525.473 79.4507 524.577 77.1893 524.577 74.544C524.577 71.8987 525.473 69.68 527.265 67.888C529.142 66.0107 531.404 65.072 534.049 65.072C536.694 65.072 538.913 65.968 540.705 67.76C542.582 69.552 543.521 71.8133 543.521 74.544ZM515.233 158V152.496L526.113 149.936V104.368H515.233V98.864L535.713 94H541.345V149.936L552.225 152.496V158H515.233ZM559.355 101.68V97.84L577.531 82.352H581.371V94.768L599.803 94V101.68H581.371V140.848C581.371 148.443 584.4 152.24 590.459 152.24C593.019 152.24 596.091 151.472 599.675 149.936L601.851 155.824C596.56 158.555 591.099 159.92 585.467 159.92C579.323 159.92 574.544 158.469 571.131 155.568C567.803 152.581 566.139 147.461 566.139 140.208V101.68H559.355ZM603.003 99.504V94H637.947V99.504L628.091 101.424L646.267 142L661.627 102.064L651.387 99.504V94H679.675V99.504L669.563 102.192L633.339 196.272C629.499 196.272 626.598 195.717 624.635 194.608C622.758 193.499 621.307 192.133 620.283 190.512L638.587 161.456L611.707 101.936L603.003 99.504Z" fill="black"/>
<defs>
<clipPath id="clip0_135_93">
<rect width="150" height="232.773" fill="white"/>
</clipPath>
</defs>
</svg>
